<svg xmlns="http://www.w3.org/2000/svg" viewBox="0 0 32 32" role="img" aria-label="MinerU Knowledge">
  <defs>
    <linearGradient id="bg" x1="4" y1="2" x2="28" y2="30" gradientUnits="userSpaceOnUse">
      <stop stop-color="#4f46e5"/>
      <stop stop-color="#8b5cf6"/>
    </linearGradient>
  </defs>
  <rect width="32" height="32" rx="8" fill="url(#bg)"/>
  <path
    fill="#ffffff"
    d="M9 9h5.2c2.8 0 4.6 1.5 4.6 3.9 0 1.6-.8 2.9-2.2 3.5 1.8.5 3 2 3 4.1 0 2.7-2.1 4.5-5.4 4.5H9V9zm3 6.2h1.9c1.1 0 1.7-.5 1.7-1.3s-.6-1.3-1.7-1.3H12v2.6zm0 6.1h2.2c1.3 0 2-.6 2-1.5 0-.9-.7-1.5-2-1.5H12v3z"
  />
</svg>
